<svg width="48" height="48" viewBox="0 0 48 48" fill="none" xmlns="http://www.w3.org/2000/svg">
  <!-- Background circle -->
  <circle cx="24" cy="24" r="22" fill="#1e293b" stroke="#334155" stroke-width="2"/>

  <!-- Asset icon - Building/Chart hybrid -->
  <g transform="translate(12, 12)">
    <!-- Base building structure -->
    <rect x="2" y="14" width="8" height="10" fill="#60a5fa" rx="1"/>
    <rect x="14" y="10" width="8" height="14" fill="#60a5fa" rx="1"/>

    <!-- Windows -->
    <rect x="4" y="16" width="1.5" height="1.5" fill="#1e293b" rx="0.3"/>
    <rect x="7.5" y="16" width="1.5" height="1.5" fill="#1e293b" rx="0.3"/>
    <rect x="4" y="19" width="1.5" height="1.5" fill="#1e293b" rx="0.3"/>
    <rect x="7.5" y="19" width="1.5" height="1.5" fill="#1e293b" rx="0.3"/>

    <rect x="16" y="12" width="1.5" height="1.5" fill="#1e293b" rx="0.3"/>
    <rect x="19.5" y="12" width="1.5" height="1.5" fill="#1e293b" rx="0.3"/>
    <rect x="16" y="15" width="1.5" height="1.5" fill="#1e293b" rx="0.3"/>
    <rect x="19.5" y="15" width="1.5" height="1.5" fill="#1e293b" rx="0.3"/>
    <rect x="16" y="18" width="1.5" height="1.5" fill="#1e293b" rx="0.3"/>
    <rect x="19.5" y="18" width="1.5" height="1.5" fill="#1e293b" rx="0.3"/>

    <!-- Growth arrow -->
    <path d="M 3 8 L 8 4 L 13 7 L 18 2" stroke="#34d399" stroke-width="2" stroke-linecap="round" stroke-linejoin="round" fill="none"/>
    <path d="M 15 2 L 18 2 L 18 5" stroke="#34d399" stroke-width="2" stroke-linecap="round" stroke-linejoin="round" fill="none"/>

    <!-- Value indicator dots -->
    <circle cx="3" cy="8" r="1.5" fill="#34d399"/>
    <circle cx="8" cy="4" r="1.5" fill="#34d399"/>
    <circle cx="13" cy="7" r="1.5" fill="#34d399"/>
  </g>
</svg>
